<?xml version="1.0" encoding="utf-8"?>
<!-- Generator: Adobe Illustrator 24.1.1, SVG Export Plug-In . SVG Version: 6.00 Build 0)  -->
<svg version="1.1" id="Image" xmlns="http://www.w3.org/2000/svg" xmlns:xlink="http://www.w3.org/1999/xlink" x="0px" y="0px"
	 viewBox="0 0 512 512" style="enable-background:new 0 0 512 512;" xml:space="preserve">
<style type="text/css">
	.st0{fill:#FFFFFF;}
</style>
<path class="st0" d="M48,392c-4.4,0-8,3.6-8,8v27.8c0,4.4,3.6,8,8,8s8-3.6,8-8V408l56,0.2c4.5-0.1,8-3.7,8-8.2c0-4.4-3.6-8-8-8H48z"
	/>
<path class="st0" d="M104,461.4V488H56c-0.2-4.4-4-7.8-8.4-7.6s-7.8,4-7.6,8.4v7.2c0,4.4,3.6,8,8,8h64c4.4,0,8-3.6,8-8v-34.6
	c0-4.4-3.6-8-8-8S104,456.9,104,461.4z"/>
<path class="st0" d="M216,458.2V488h-48v-22.1c0-4.4-3.6-8-8-8s-8,3.6-8,8V496c0,4.4,3.6,8,8,8h64c4.4,0,8-3.6,8-8v-37.8
	c0-4.4-3.6-8-8-8S216,453.8,216,458.2z"/>
<path class="st0" d="M272,356.2c4.4,0,8-3.6,8-8V280h48v48.2c0,4.4,3.6,8,8,8s8-3.6,8-8V272c0-4.4-3.6-8-8-8h-64c-4.4,0-8,3.6-8,8
	v76.2C264,352.6,267.6,356.2,272,356.2z"/>
<path class="st0" d="M336,377.4c-4.4,0-8,3.6-8,8V488h-48v-68.2c0-4.4-3.6-8-8-8s-8,3.6-8,8V496c0,4.4,3.6,8,8,8h64c4.4,0,8-3.6,8-8
	V385.4C344,380.9,340.4,377.4,336,377.4z"/>
<path class="st0" d="M448,340.8c-4.4,0-8,3.6-8,8V488h-48v-93c0-4.4-3.6-8-8-8s-8,3.6-8,8v101c0,4.4,3.6,8,8,8h64c4.4,0,8-3.6,8-8
	V348.8C456,344.4,452.4,340.8,448,340.8z"/>
<path class="st0" d="M384,343.4c4.4,0,8-3.6,8-8V216h48v50.6c0,4.4,3.6,8,8,8s8-3.6,8-8V208c0-4.4-3.6-8-8-8h-32v-96h80
	c4.4,0,8-3.6,8-8c0-1.7-0.6-3.4-1.6-4.8l-19.8-26.4l19.1-19.1c3.1-3.1,3.1-8.2,0-11.3c-1.5-1.5-3.5-2.3-5.7-2.3h-88
	c-4.4,0-8,3.6-8,8v160h-16c-4.4,0-8,3.6-8,8v127.4C376,339.9,379.6,343.4,384,343.4z M416,48h60.7l-10.3,10.3
	c-2.8,2.8-3.1,7.3-0.7,10.5L480,88h-64V48z"/>
<path class="st0" d="M496,248h-24c-4.4,0-8,3.6-8,8s3.6,8,8,8h5.7l-88.5,95.3l-75.6-15.1c-2.3-0.5-4.7,0.1-6.6,1.6l-116.5,93.2
	l-59.7-22.4c-1.9-0.7-4.1-0.7-6,0.1l-112,48c-4,1.8-5.8,6.5-4.1,10.6c1.8,4,6.4,5.8,10.4,4.1l109-46.7l61,22.9
	c2.6,1,5.6,0.5,7.8-1.2l117.1-93.7l76.3,15.3c2.7,0.6,5.5-0.4,7.4-2.4l90.2-97.1v3.6c0,4.4,3.6,8,8,8s8-3.6,8-8v-24
	C503.9,251.6,500.4,248.1,496,248z"/>
<path class="st0" d="M189.8,154.5c-3.2-3.1-8.2-3-11.3,0.2c-3,3.1-3,8,0,11.1l7.8,7.8c1.5,1.5,3.5,2.3,5.7,2.3h32c4.4,0,8,3.6,8,8
	s-3.6,8-8,8h-29.2c-1,0-2-0.2-2.9-0.5l-14.4-4.8c-4.2-1.4-8.7,0.9-10.1,5.1c-1.4,4.2,0.9,8.7,5.1,10.1l0,0l14.5,4.8
	c2.6,0.9,5.3,1.3,8,1.3H224c13.3,0,24-10.7,24-24s-10.7-24-24-24h-28.7L189.8,154.5z"/>
<path class="st0" d="M26.3,214.9c12.2,6.8,27.6,2.4,34.4-9.8c0,0,0,0,0-0.1l16.9-30.6l37.3-14.9c4.1-1.6,6.1-6.3,4.5-10.4
	c-1.6-4.1-6.3-6.1-10.4-4.5l-40,16c-1.7,0.7-3.1,2-4,3.6l-18.3,33.1c-2.5,4.5-8.1,6.1-12.6,3.6c0,0,0,0,0,0c-3.9-2.1-5.3-7-3.1-10.9
	c0,0,0-0.1,0.1-0.1l24.6-42.7c0.9-1.5,2.1-2.7,3.7-3.5c35.4-19,64.8-31.7,73.2-31.7c5.9,0,27.5,9,27.5,24.7
	c0,16.1-17,54.4-23.5,67.8c-1.7,3.5-0.7,7.6,2.4,9.9l56.1,41.9c2.7,2,4.1,5.4,3.6,8.7l-9.1,63h-16l2.5-55.6c0.2-4.1-2.8-7.7-6.9-8.3
	C129.9,258.6,88,244.4,88,232c0-13.8,2-27.6,6-40.8c1.3-4.2-1.1-8.7-5.3-10c-4.2-1.3-8.7,1.1-10,5.3l0,0C74.3,201.2,72,216.6,72,232
	c0,29.3,60.1,42.4,87.7,46.8l-2.2,49.7c-3.3,1-5.5,4.1-5.5,7.5v70.1c0,4.4,3.6,8,8,8s8-3.6,8-8V344h48v42.6c0,4.4,3.6,8,8,8
	s8-3.6,8-8V336c0-4.4-3.6-8-8-8h-18.3l8.8-60.7c1.3-9.2-2.5-18.3-9.9-23.8l-50.8-37.9c6.8-14.5,22.3-50,22.3-68.8
	c0-26.9-30.5-40.7-43.5-40.7c-15.7,0-57.3,21-80.8,33.5c-4.2,2.2-7.6,5.6-10,9.7l-24.6,42.7c-6.6,11.5-2.7,26.2,8.8,32.8
	C26.1,214.8,26.2,214.8,26.3,214.9z"/>
<path class="st0" d="M123,280.6c-4.1-1.6-8.8,0.4-10.4,4.5c0,0,0,0,0,0l-15.1,37.7l-34.7,23.1c-3.6,2.4-8.3,2-11.5-0.9
	c-3.6-3.3-3.9-9-0.6-12.6c0,0,0.1-0.1,0.1-0.1l26.2-27.7c0.8-0.9,1.4-1.9,1.8-3l8.7-27c1.6-4.1-0.5-8.8-4.6-10.3
	c-4.1-1.6-8.8,0.5-10.3,4.6c-0.1,0.3-0.2,0.5-0.3,0.8l-8.2,25.3l-25,26.4c-9.4,10-9,25.8,1.1,35.2c0.1,0.1,0.2,0.2,0.3,0.3
	c8.6,7.8,21.4,8.8,31.1,2.3l36.7-24.5c1.3-0.9,2.4-2.2,3-3.7l16-40C129.1,286.8,127.1,282.2,123,280.6z"/>
<path class="st0" d="M180.5,96c20.8-1.6,36.5-19.5,35.5-40.3C216,24.6,194.4,8,178.8,8C149.4,8,136,28,136,46.5
	C136,75.2,154.7,96,180.5,96z M178.8,24c7.2,0,21.2,9.6,21.2,31.7c0.9,12-7.6,22.6-19.5,24.3c-17,0-28.5-13.5-28.5-33.5
	C152,35.6,159,24,178.8,24L178.8,24z"/>
</svg>
